HIERARCHY
ROOT root
{
	OFFSET 0.000000 0.000000 0.000000
	CHANNELS 6 Xposition Yposition Zposition Zrotation Yrotation Xrotation
	JOINT lhip
	{
		OFFSET 0.058581 -0.082280 -0.017664
		CHANNELS 3 Zrotation Yrotation Xrotation
		JOINT lknee
		{
			OFFSET 0.043451 -0.386469 0.008037
			CHANNELS 3 Zrotation Yrotation Xrotation
			JOINT lankle
			{
				OFFSET -0.014790 -0.426874 -0.037428
				CHANNELS 3 Zrotation Yrotation Xrotation
				JOINT ltoe
				{
					OFFSET 0.041054 -0.060286 0.122042
					CHANNELS 3 Zrotation Yrotation Xrotation
					End Site
					{
						OFFSET 0.000000 0.000000 0.000000
					}
				}
			}
		}
	}
	JOINT rhip
	{
		OFFSET -0.060310 -0.090513 -0.013543
		CHANNELS 3 Zrotation Yrotation Xrotation
		JOINT rknee
		{
			OFFSET -0.043257 -0.383688 -0.004843
			CHANNELS 3 Zrotation Yrotation Xrotation
			JOINT rankle
			{
				OFFSET 0.019056 -0.420046 -0.034562
				CHANNELS 3 Zrotation Yrotation Xrotation
				JOINT rtoe
				{
					OFFSET -0.034840 -0.062106 0.130323
					CHANNELS 3 Zrotation Yrotation Xrotation
					End Site
					{
						OFFSET 0.000000 0.000000 0.000000
					}
				}
			}
		}
	}
	JOINT lowerback
	{
		OFFSET 0.004439 0.124404 -0.038385
		CHANNELS 3 Zrotation Yrotation Xrotation
		JOINT upperback
		{
			OFFSET 0.004488 0.137956 0.026820
			CHANNELS 3 Zrotation Yrotation Xrotation
			JOINT chest
			{
				OFFSET -0.002265 0.056032 0.002855
				CHANNELS 3 Zrotation Yrotation Xrotation
				JOINT lowerneck
				{
					OFFSET -0.013390 0.211636 -0.033468
					CHANNELS 3 Zrotation Yrotation Xrotation
					JOINT upperneck
					{
						OFFSET 0.010113 0.088937 0.050410
						CHANNELS 3 Zrotation Yrotation Xrotation
						End Site
						{
							OFFSET 0.000000 0.000000 0.000000
						}
					}
				}
				JOINT lclavicle
				{
					OFFSET 0.071702 0.114000 -0.018898
					CHANNELS 3 Zrotation Yrotation Xrotation
					JOINT lshoulder
					{
						OFFSET 0.122921 0.045205 -0.019046
						CHANNELS 3 Zrotation Yrotation Xrotation
						JOINT lelbow
						{
							OFFSET 0.255332 -0.015649 -0.022946
							CHANNELS 3 Zrotation Yrotation Xrotation
							JOINT lwrist
							{
								OFFSET 0.265709 0.012698 -0.007375
								CHANNELS 3 Zrotation Yrotation Xrotation
								End Site
								{
									OFFSET 0.000000 0.000000 0.000000
								}
							}
						}
					}
				}
				JOINT rclavicle
				{
					OFFSET -0.082954 0.112472 -0.023707
					CHANNELS 3 Zrotation Yrotation Xrotation
					JOINT rshoulder
					{
						OFFSET -0.113228 0.046853 -0.008472
						CHANNELS 3 Zrotation Yrotation Xrotation
						JOINT relbow
						{
							OFFSET -0.260127 -0.014369 -0.031269
							CHANNELS 3 Zrotation Yrotation Xrotation
							JOINT rwrist
							{
								OFFSET -0.269108 0.006794 -0.006027
								CHANNELS 3 Zrotation Yrotation Xrotation
								End Site
								{
									OFFSET 0.000000 0.000000 0.000000
								}
							}
						}
					}
				}
			}
		}
	}
}
MOTION
Frames: 7
Frame Time: 0.033333
-2.055285 0.698696 1.009856 14.524868 -1.321653 84.325162 3.261782 -12.755566 -16.308481 -16.256457 -24.004836 32.076989 -3.581669 -6.620832 -5.098974 0.000000 -0.000000 0.000000 1.948310 -2.347986 2.530703 -2.685362 4.889781 11.799656 1.263935 -9.420558 -14.037630 0.000000 -0.000000 0.000000 -0.475941 4.938072 13.361393 -0.415465 -4.508539 -1.870825 1.124312 -0.870554 1.117262 -6.012657 30.102962 -5.679547 -4.088237 29.644411 -3.843780 -23.054107 -13.248295 0.918370 -55.570171 -15.901917 9.800587 6.246379 -16.977471 6.579924 4.066353 -4.268288 -9.529667 17.003705 4.751449 8.290500 56.205886 -4.194635 13.482848 -9.749325 27.770242 13.914441 2.062429 3.157592 -2.139302 
-2.062035 0.704572 1.009396 19.316142 -1.657359 84.060339 2.635834 -11.720573 -17.547192 -15.465193 -21.232011 31.636019 -4.595001 -6.400801 -4.006404 0.000000 -0.000000 0.000000 2.522595 -3.263151 2.921745 -3.422217 2.616040 10.884262 0.081101 -11.447150 -14.230426 0.000000 -0.000000 0.000000 -0.321391 4.666534 14.381580 -0.621443 -4.799460 -2.588634 1.213795 -0.956527 1.291512 -6.863418 28.273070 -5.462502 -3.815863 28.783938 -3.717437 -23.498023 -13.227005 1.065061 -56.025412 -15.984306 8.558827 6.992267 -14.214157 4.258112 7.938645 -4.666125 -9.405363 17.047148 4.681829 8.240877 55.130034 -4.155550 13.095617 -9.691075 28.374121 15.023742 -1.735017 4.048928 0.720236 
-2.068707 0.710313 1.008498 23.392529 -1.542627 84.274558 2.941097 -9.768252 -18.775102 -14.960199 -17.800935 30.887299 -5.308426 -6.158766 -4.607570 0.000000 -0.000000 0.000000 3.267285 -4.469225 2.147069 -3.921236 0.989303 11.090348 -1.303995 -12.761169 -14.715090 0.000000 -0.000000 0.000000 0.148918 4.457036 14.464956 -0.708741 -4.934048 -2.787941 1.208375 -1.163727 1.573847 -7.483194 26.771141 -5.778829 -3.817368 27.861512 -3.280483 -24.066117 -13.092482 1.410395 -56.239143 -15.731690 7.344432 7.616555 -12.590977 2.605991 9.323186 -4.321259 -9.425064 17.229261 4.736314 8.238803 54.193753 -3.864595 12.464256 -9.884265 29.523126 14.797399 -2.922965 4.773257 0.851852 
-2.073613 0.715276 1.007186 26.945948 -1.607441 84.389529 2.912754 -7.668720 -18.830590 -13.788690 -13.078882 29.766997 -3.193068 -3.978694 -7.278654 0.000000 -0.000000 0.000000 3.328949 -5.242818 1.266751 -3.884003 -0.777222 11.877415 -1.548635 -13.539784 -15.186870 0.000000 -0.000000 0.000000 0.472680 3.971404 14.473099 -0.858071 -4.715174 -2.892725 1.014078 -1.257843 1.643775 -7.362292 25.395071 -5.868030 -3.898912 26.985029 -2.560840 -24.663808 -12.958663 1.813725 -56.237880 -15.053514 6.586778 7.761250 -11.559316 2.239184 8.865463 -4.012204 -8.531304 17.491604 4.683749 8.419977 54.021522 -3.314359 12.031202 -10.669707 30.615019 13.125363 -3.410943 5.098270 0.292304 
-2.078550 0.718764 1.006563 30.081945 -1.658230 84.311825 2.793674 -5.035539 -18.025437 -11.305937 -7.275798 29.312061 -0.903140 -0.350480 -10.074172 0.000000 -0.000000 0.000000 3.515571 -5.496043 0.946033 -4.049267 -2.670200 12.223297 -1.569425 -14.104648 -15.300429 0.000000 -0.000000 0.000000 0.374343 3.576906 14.580691 -0.900361 -4.532345 -3.066636 0.906809 -1.223412 1.801343 -6.859226 23.998517 -5.753491 -3.902950 26.435388 -2.085292 -25.172190 -12.317511 2.133839 -55.972219 -14.173804 5.990817 7.060110 -11.591565 2.960441 7.500106 -3.955326 -6.944158 17.921278 4.442201 8.135354 54.318662 -2.471419 11.860448 -11.292240 31.353126 11.202708 -3.176024 5.280123 0.304644 
-2.082389 0.722429 1.006065 32.915135 -1.753481 84.415744 2.762789 -2.599271 -16.945125 -8.233327 -1.679488 29.439684 1.206331 3.928183 -11.975126 0.000000 -0.000000 0.000000 3.538759 -5.789401 0.318960 -4.195897 -4.421433 12.786609 -1.746147 -14.652473 -15.453459 0.000000 -0.000000 0.000000 0.200881 3.398332 14.279283 -0.885689 -4.368539 -3.240564 0.803550 -1.278570 1.943804 -6.179589 22.644125 -5.282022 -3.816136 25.858902 -1.619879 -25.488351 -11.365599 2.502838 -55.893121 -13.118162 5.487709 5.999140 -12.563678 3.973637 6.369691 -3.377920 -5.928878 18.386232 4.179771 7.987890 54.942560 -1.552108 11.861472 -11.955758 32.181766 9.419139 -3.411665 5.016508 0.331226 
-2.085969 0.725115 1.006205 35.633932 -1.877696 84.383200 3.236472 -0.056874 -15.482766 -6.479780 2.841519 30.173729 2.639945 6.582721 -13.136610 0.000000 -0.000000 0.000000 3.486440 -6.227667 0.127932 -4.312200 -5.857733 12.857635 -1.887688 -15.183341 -15.402415 0.000000 -0.000000 0.000000 -0.271142 3.110523 14.151420 -0.860044 -4.107960 -3.381456 0.912340 -1.365247 1.968578 -5.695204 21.345213 -5.147386 -3.594903 25.195214 -1.050432 -25.545956 -10.461198 2.969402 -56.378647 -12.068270 5.006113 5.878733 -13.609524 4.756805 5.651922 -2.762361 -5.131929 18.776253 3.894792 7.607186 55.874870 -0.920822 11.975063 -12.469948 33.558691 8.301699 -3.144322 4.655101 0.172785 
